<svg width="24" height="39" viewBox="0 0 24 39" fill="none" xmlns="http://www.w3.org/2000/svg">
<path d="M22.8655 9.37402H5.95703V12.3517H22.8655V9.37402Z" fill="#670821"/>
<path d="M10.2857 9.37402H3.52539V18.8541H10.2857V9.37402Z" fill="#8E1537"/>
<path d="M7.30565 2.70303L4.37305 5.63574L7.30565 8.56845L10.2383 5.63574L7.30565 2.70303Z" fill="#D41E44"/>
<path d="M9.70691 9.37402H0.181641V12.3517H9.70691V9.37402Z" fill="#D41E44"/>
<path d="M13.5514 38.7553L10.1332 19.5826L7.20117 19.5674L10.5434 38.7857L13.5514 38.7553Z" fill="#8E1537"/>
<path d="M0 38.7553L3.41816 19.5826L6.35018 19.5674L2.99279 38.7857L0 38.7553Z" fill="#670821"/>
<path d="M18.823 22.5151L9.73828 10.8474L18.8382 0L19.218 0.379809C25.2187 6.3808 25.2187 16.1343 19.218 22.1353L18.823 22.5151ZM10.9688 10.8625L18.8989 21.0414C24.0186 15.5266 24.0186 6.94291 18.8838 1.42808L10.9688 10.8625Z" fill="#D3AB9A"/>
<path d="M22.9987 10.5127H10.9668V11.2419H22.9987V10.5127Z" fill="#D3AB9A"/>
</svg>
