<svg width="29" height="23" viewBox="0 0 29 23" fill="none" xmlns="http://www.w3.org/2000/svg">
<path d="M28.0169 16.2551L28.0046 16.1323L27.0593 16.1446L27.0715 16.3042C27.0715 16.3165 27.1943 17.6793 24.6652 18.6123C23.0323 19.2139 20.6505 19.5209 17.5934 19.5209H0V20.2452H17.5934C20.8715 20.2452 23.4497 19.9015 25.2422 19.2385C28.2502 18.1335 28.0292 16.3288 28.0169 16.2551Z" fill="#D3AB9A"/>
<path d="M11.6647 0.012207L6.86426 4.80037L10.3265 4.75126L13.0152 2.05024L11.6647 0.012207Z" fill="#670821"/>
<path d="M11.6627 3.4131L15.7633 7.51373L17.4698 5.81946L11.6504 0L11.6627 3.4131Z" fill="#8E1537"/>
<path d="M9.68565 7.30493H7.2793V15.5308H9.68565V7.30493Z" fill="#670821"/>
<path d="M12.3271 8.79044H17.4714V5.03357H9.25781L12.3271 8.79044Z" fill="#D41E44"/>
<path d="M22.3562 3.75684H18.9922V7.12083H22.3562V3.75684Z" fill="#D41E44"/>
<path d="M3.21722 22.05L9.71194 15.5553L7.31786 14.5486L1.52295 20.3435L3.21722 22.05Z" fill="#8E1537"/>
<path d="M7.2793 7.31722L13.3566 15.2852L15.235 13.5909L9.23139 5.9176L7.2793 7.31722Z" fill="#8E1537"/>
<path d="M7.2793 15.9973H12.6568L15.235 13.5909H7.2793V15.9973Z" fill="#D41E44"/>
<path d="M21.3257 13.419L27.4889 7.26807L25.7823 5.56152L19.9629 11.381L21.3257 13.419Z" fill="#D41E44"/>
<path d="M21.3139 10.0182L17.2133 5.9176L15.519 7.61188L21.3385 13.4313L21.3139 10.0182Z" fill="#8E1537"/>
</svg>
