<svg width="25" height="34" viewBox="0 0 25 34" fill="none" xmlns="http://www.w3.org/2000/svg">
<path d="M21.5156 6.09375H6.4707V8.80898H21.5156V6.09375Z" fill="#670821"/>
<path d="M12.6355 6.09375H6.4707V14.7382H12.6355V6.09375Z" fill="#8E1537"/>
<path d="M11.0053 0.00158042L8.33105 2.67578L11.0053 5.34998L13.6796 2.67578L11.0053 0.00158042Z" fill="#D41E44"/>
<path d="M6.46783 6.08592L4.54785 8.00586L9.40656 12.8645L11.3265 10.9445L6.46783 6.08592Z" fill="#D41E44"/>
<path d="M12.3987 6.08864L7.54004 10.9473L9.46001 12.8672L14.3187 8.00858L12.3987 6.08864Z" fill="#D41E44"/>
<path d="M9.22505 15.3906H6.50977V24.6723H9.22505V15.3906Z" fill="#670821"/>
<path d="M1.92563 32.0131L9.25412 24.6848L6.55269 23.5488L0 30.1014L1.92563 32.0131Z" fill="#8E1537"/>
<path d="M15.5568 24.0629L12.4952 15.3908L9.58594 15.377L12.9939 24.9495L15.5568 24.0629Z" fill="#670821"/>
<path d="M11.0966 33.4L15.5851 24.0629L12.662 23.8828L8.64453 32.2225L11.0966 33.4Z" fill="#8E1537"/>
<path d="M24.3538 5.4707H19.9346V9.40502H24.3538V5.4707Z" fill="#670821"/>
<path d="M13.6024 3.95332L10.4775 7.07812L13.2595 9.86008L16.3844 6.73528L13.6024 3.95332Z" fill="#D41E44"/>
</svg>
