<svg width="37" height="26" viewBox="0 0 37 26" fill="none" xmlns="http://www.w3.org/2000/svg">
<path d="M7.46131 11.6306H5.26562V19.1358H7.46131V11.6306Z" fill="#670821"/>
<path d="M1.55714 25.0838L7.48324 19.158L5.29876 18.2395L0 23.5267L1.55714 25.0838Z" fill="#8E1537"/>
<path d="M13.5074 16.817L10.1242 11.6306H7.46924L11.3453 17.7468L13.5074 16.817Z" fill="#670821"/>
<path d="M13.5974 25.1958L13.519 16.8169L11.3345 17.7354L11.4017 25.2182L13.5974 25.1958Z" fill="#8E1537"/>
<path d="M10.2393 11.2048L12.7822 4.69655L8.14442 4.60693L5.36621 11.16L10.2393 11.2048Z" fill="#8E1537"/>
<path d="M12.7477 0.000208709L9.94629 1.22681L11.173 4.02801L13.9743 2.80141L12.7477 0.000208709Z" fill="#D41E44"/>
<path d="M3.02539 6.57847H9.13073L8.15611 4.61816L3.30545 4.65177L3.02539 6.57847Z" fill="#8E1537"/>
<path d="M15.2817 10.2976H21.4767V7.95643L15.9987 7.91162L15.2817 10.2976Z" fill="#D41E44"/>
<path d="M15.9978 7.91144L12.7827 4.69653L11.2256 6.24238L15.2809 10.2974L15.9978 7.91144Z" fill="#8E1537"/>
<path d="M5.22986 1.72827H3.03418V6.57864H5.22986V1.72827Z" fill="#670821"/>
<path d="M36.7419 8.88595H22.9404V7.63135H22.1675V10.8575H22.9404V9.60286H36.7419V8.88595Z" fill="#D3AB9A"/>
</svg>
