<svg width="28" height="31" viewBox="0 0 28 31" fill="none" xmlns="http://www.w3.org/2000/svg">
<path d="M9.33549 14.7555L3.32178 20.7692L5.21677 22.6642L11.2305 16.6504L9.33549 14.7555Z" fill="#670821"/>
<path d="M11.776 17.1093L0 28.8854L1.895 30.7804L13.671 19.0043L11.776 17.1093Z" fill="#D41E44"/>
<path d="M12.2212 4.40835L10.3262 6.30334L26.1049 22.0821L27.9999 20.1871L12.2212 4.40835Z" fill="#8E1537"/>
<path d="M15.9403 8.1459L9.90723 14.179L14.2096 18.4814L20.2427 12.4483L15.9403 8.1459Z" fill="#8E1537"/>
<path d="M23.3554 7.05566H19.6226V10.7885H23.3554V7.05566Z" fill="#D41E44"/>
<path d="M21.5383 5.19583C20.1027 5.19583 18.9404 4.03361 18.9404 2.59792C18.9404 1.16223 20.1027 0 21.5383 0C22.974 0 24.1363 1.16223 24.1363 2.59792C24.1363 4.03361 22.9604 5.19583 21.5383 5.19583ZM21.5383 0.738354C20.5129 0.738354 19.6651 1.57242 19.6651 2.61159C19.6651 3.63708 20.4992 4.48482 21.5383 4.48482C22.5638 4.48482 23.4116 3.65075 23.4116 2.61159C23.3979 1.57242 22.5638 0.738354 21.5383 0.738354Z" fill="#D3AB9A"/>
<path d="M14.1137 6.30358L18.2293 2.18793L16.3424 0.287354L10.3262 6.30358H14.1137Z" fill="#D41E44"/>
</svg>
