<svg width="25" height="34" viewBox="0 0 25 34" fill="none" xmlns="http://www.w3.org/2000/svg">
<path d="M6.26325 6.06691L0.0483398 7.74707L0.796804 10.5154L7.01171 8.83526L6.26325 6.06691Z" fill="#670821"/>
<path d="M7.75439 16.3538L14.8943 24.9857L14.2067 19.9529L11.3683 16.7927L7.75439 16.3538Z" fill="#8E1537"/>
<path d="M16.9444 32.3154V23.3615L14.0913 19.7625V32.3154H16.9444Z" fill="#D41E44"/>
<path d="M8.16518 24.9566L7.75551 16.3246L5.00488 15.8418L5.2975 24.9566H8.16518Z" fill="#670821"/>
<path d="M4.2876 33.0324L8.17945 24.8686L5.28251 24.4297L1.82959 31.5694L4.2876 33.0324Z" fill="#8E1537"/>
<path d="M7.03839 14.8763C7.03839 14.8763 5.38509 14.3203 3.29285 16.2808C2.50278 17.027 1.55176 16.4417 1.55176 16.4417" fill="#D41E44"/>
<path d="M2.06501 17.1C1.74313 17.0561 1.47977 16.939 1.3042 16.8366L1.80165 16.0466C1.86018 16.0905 2.46005 16.427 2.97213 15.9442C5.22531 13.8081 7.09808 14.408 7.18587 14.4372L6.89325 15.3151C6.83472 15.3004 5.44478 14.8908 3.6159 16.6172C3.11845 17.0853 2.5332 17.1731 2.06501 17.1Z" fill="#D41E44"/>
<path d="M6.90676 14.9492C6.90676 14.9492 5.06325 15.2711 4.24392 18.007C3.93667 19.0458 2.82471 19.0165 2.82471 19.0165" fill="#D41E44"/>
<path d="M2.80957 19.4846L2.83883 18.5482C2.91199 18.5482 3.59965 18.5482 3.80448 17.8752C4.69697 14.8906 6.74531 14.4956 6.8331 14.481L6.99404 15.4027L6.92088 14.9491L7.00867 15.4027C6.95015 15.4173 5.42852 15.7392 4.7116 18.1386C4.36046 19.2359 3.30702 19.4992 2.80957 19.4846Z" fill="#D41E44"/>
<path d="M11.7348 9.9164L24.9759 9.96029L24.9613 7.09272L11.7056 7.04883L11.7348 9.9164Z" fill="#670821"/>
<path d="M9.74768 -2.21603e-05L6.92334 2.82422L9.74769 5.64846L12.572 2.82422L9.74768 -2.21603e-05Z" fill="#D41E44"/>
<path d="M10.7108 12.0527L7.63831 6.2883L6.2191 6.06885L4.87305 15.0959L6.97991 15.4177L10.7108 12.0527Z" fill="#8E1537"/>
<path d="M11.8672 12.2575L8.18018 15.5933L11.3112 16.0614L12.6573 7.01981L8.78005 6.44922L11.8672 12.2575Z" fill="#8E1537"/>
<path d="M1.11196 11.6134L6.01335 14.7443L7.40329 12.2425L0 7.72168L1.11196 11.6134Z" fill="#D41E44"/>
</svg>
