<svg width="26" height="34" viewBox="0 0 26 34" fill="none" xmlns="http://www.w3.org/2000/svg">
<path d="M14.917 12.9483L24.6346 17.0444L25.3793 14.8102L15.6617 10.7141L14.917 12.9483Z" fill="#670821"/>
<path d="M15.6382 10.7261H10.293V18.2216H15.6382V10.7261Z" fill="#8E1537"/>
<path d="M14.2348 5.44246L11.916 7.76123L14.2348 10.08L16.5535 7.76123L14.2348 5.44246Z" fill="#D41E44"/>
<path d="M12.6947 18.7866H10.3403V26.8347H12.6947V18.7866Z" fill="#670821"/>
<path d="M6.363 33.2007L12.7173 26.8463L10.375 25.8613L4.69336 31.543L6.363 33.2007Z" fill="#8E1537"/>
<path d="M19.1804 24.348L15.5408 18.7864L12.7061 18.7744L16.8621 25.345L19.1804 24.348Z" fill="#670821"/>
<path d="M19.2773 33.3334L19.1812 24.3484L16.8389 25.3214L16.923 33.3574L19.2773 33.3334Z" fill="#8E1537"/>
<path d="M14.7111 10.7261H5.37793V13.0804H14.7111V10.7261Z" fill="#8E1537"/>
<path d="M5.39311 11.6394V10.7265L1.29708 6.79858L0.10791 7.97576L5.39311 13.0688V11.6394Z" fill="#D41E44"/>
<path d="M2.41337 5.30912C2.19716 5.66948 1.53651 6.06588 1.36835 6.16197C1.34432 6.17398 1.30829 6.17398 1.28426 6.16197L1.20018 6.12594C1.17616 6.11392 1.15213 6.0899 1.14012 6.06588C1.08006 5.8857 0.839826 5.14095 0.923909 4.73254C0.935921 4.67248 0.99598 4.64846 1.05604 4.66047L2.36533 5.15296C2.42539 5.20101 2.44941 5.26107 2.41337 5.30912Z" fill="#D3AB9A"/>
<path d="M5.33179 2.29392C5.33179 2.2699 5.33179 2.24587 5.33179 2.23386C5.33179 2.20984 5.33179 2.19783 5.31978 2.1738C5.31978 2.14978 5.30777 2.13777 5.30777 2.11374C5.30777 2.08972 5.29576 2.07771 5.29576 2.05368C5.29576 2.02966 5.28375 2.01765 5.28375 1.99362C5.28375 1.9696 5.27173 1.95759 5.27173 1.93356C5.27173 1.90954 5.25972 1.89753 5.25972 1.8735C5.24771 1.84948 5.24771 1.83747 5.2357 1.81344C4.91138 0.912544 3.92641 0.299932 2.95345 0.0837162C2.44896 -0.0364037 1.90842 -0.0364037 1.42795 0.143776C0.779312 0.384016 0.370911 0.960591 0.178721 1.60924C-0.445893 3.71134 0.7673 6.34196 0.7673 6.34196L0.166709 7.92755L0.923454 8.21583L1.52405 6.63025C1.52405 6.63025 4.17866 5.46509 5.10357 3.4711C5.17564 3.31494 5.2357 3.1708 5.27173 3.00263C5.31978 2.73837 5.34381 2.51014 5.33179 2.29392ZM4.1186 2.08972C4.14262 2.01765 4.21469 1.99362 4.28677 2.01765C4.33481 2.04167 4.37085 2.08972 4.37085 2.13777V2.14978V2.16179V2.1738C4.37085 2.18581 4.35884 2.18581 4.35884 2.19783L4.34682 2.20984C4.31079 2.24587 4.25073 2.2699 4.20268 2.24587C4.20268 2.24587 4.19067 2.24587 4.19067 2.23386C4.19067 2.23386 4.17866 2.23386 4.17866 2.22185C4.1186 2.20984 4.09458 2.14978 4.1186 2.08972ZM4.04653 2.65428C4.04653 2.65428 4.03452 2.65428 4.03452 2.64227C4.03452 2.64227 4.02251 2.64227 4.02251 2.63026C3.97446 2.59422 3.96245 2.53416 3.97446 2.4741C3.99848 2.40203 4.07055 2.37801 4.14262 2.40203C4.19067 2.42605 4.22671 2.4741 4.22671 2.52215V2.53416V2.54617V2.55819C4.19067 2.64227 4.1186 2.67831 4.04653 2.65428ZM4.07055 2.93056V2.94257V2.95458V2.96659C4.04653 3.03867 3.97446 3.06269 3.90239 3.03867C3.90239 3.03867 3.89037 3.03867 3.89037 3.02665C3.89037 3.02665 3.87836 3.02665 3.87836 3.01464C3.83032 2.9786 3.8183 2.91855 3.83032 2.85849C3.85434 2.78641 3.92641 2.76239 3.99848 2.78641C4.04653 2.82245 4.07055 2.8705 4.07055 2.93056ZM3.84233 1.53717C3.86635 1.46509 3.93842 1.44107 4.01049 1.46509C4.05854 1.48912 4.09458 1.53717 4.09458 1.58521V1.59723V1.60924V1.62125C4.07055 1.69332 3.99848 1.71735 3.92641 1.69332C3.92641 1.69332 3.9144 1.69332 3.9144 1.68131C3.9144 1.68131 3.90239 1.68131 3.90239 1.6693C3.84233 1.65729 3.8183 1.59723 3.84233 1.53717ZM3.68617 1.93356C3.7102 1.86149 3.78227 1.83747 3.85434 1.86149C3.90239 1.88551 3.93842 1.93356 3.93842 1.98161V1.99362V2.00563V2.01765V2.02966C3.9144 2.08972 3.84233 2.11374 3.77026 2.08972C3.77026 2.08972 3.75825 2.08972 3.75825 2.07771C3.75825 2.07771 3.74623 2.07771 3.74623 2.06569C3.68617 2.04167 3.67416 1.98161 3.68617 1.93356ZM1.11564 2.61825C1.16369 2.64227 1.19973 2.69032 1.19973 2.73837V2.75038V2.76239V2.7744C1.1757 2.84647 1.10363 2.8705 1.03156 2.84647C1.03156 2.84647 1.01955 2.84647 1.01955 2.83446C1.01955 2.83446 1.00754 2.83446 1.00754 2.82245C0.959489 2.78641 0.947478 2.72635 0.95949 2.66629C0.971502 2.61825 1.04357 2.58221 1.11564 2.61825ZM1.09162 2.29392C1.11564 2.22185 1.18771 2.19783 1.25979 2.22185C1.30783 2.24587 1.34387 2.29392 1.34387 2.34197V2.35398V2.36599V2.37801C1.31984 2.45008 1.24777 2.4741 1.1757 2.45008C1.1757 2.45008 1.16369 2.45008 1.16369 2.43807C1.16369 2.43807 1.15168 2.43807 1.15168 2.42605C1.09162 2.41404 1.0676 2.35398 1.09162 2.29392ZM1.07961 3.63927C1.10363 3.56719 1.1757 3.54317 1.24777 3.56719C1.29582 3.59122 1.33186 3.63926 1.33186 3.68731V3.69933V3.71134V3.72335C1.30783 3.79542 1.23576 3.81944 1.16369 3.79542C1.16369 3.79542 1.15168 3.79542 1.15168 3.78341C1.15168 3.78341 1.13967 3.78341 1.13967 3.7714C1.07961 3.75938 1.05558 3.69933 1.07961 3.63927ZM1.29582 3.41104C1.29582 3.41104 1.28381 3.41104 1.28381 3.39903C1.28381 3.39903 1.2718 3.39902 1.2718 3.38701C1.22375 3.35098 1.21174 3.29092 1.22375 3.23086C1.24777 3.15878 1.31984 3.13476 1.39191 3.15879C1.43996 3.18281 1.476 3.23086 1.476 3.27891V3.29092V3.30293V3.31494V3.32695C1.476 3.33896 1.46399 3.33896 1.46399 3.35098C1.41594 3.41104 1.35588 3.43506 1.29582 3.41104ZM1.45197 3.02665C1.45197 3.02665 1.43996 3.02665 1.43996 3.01464C1.43996 3.01464 1.42795 3.01464 1.42795 3.00263C1.3799 2.96659 1.36789 2.90653 1.3799 2.84647C1.40393 2.7744 1.476 2.75038 1.54807 2.7744C1.59612 2.79843 1.63215 2.84647 1.63215 2.89452V2.90653V2.91855V2.93056C1.59612 3.01464 1.51203 3.05068 1.45197 3.02665ZM1.69221 2.37801C1.74026 2.40203 1.77629 2.45008 1.77629 2.49813V2.51014V2.52215V2.53416C1.75227 2.60623 1.6802 2.63026 1.60813 2.60623C1.60813 2.60623 1.59612 2.60623 1.59612 2.59422C1.59612 2.59422 1.5841 2.59422 1.5841 2.58221C1.53606 2.54617 1.52405 2.48611 1.53606 2.42605C1.54807 2.39002 1.62014 2.35398 1.69221 2.37801ZM1.66819 2.06569C1.69221 1.99362 1.76428 1.9696 1.83635 1.99362C1.8844 2.01765 1.92044 2.06569 1.92044 2.11374V2.12575V2.13777V2.14978C1.89641 2.22185 1.82434 2.24587 1.75227 2.22185C1.75227 2.22185 1.74026 2.22185 1.74026 2.20984C1.74026 2.20984 1.72825 2.20984 1.72825 2.19783C1.66819 2.18581 1.65618 2.12575 1.66819 2.06569ZM1.50002 3.80743C1.52405 3.73536 1.59612 3.71134 1.66819 3.73536C1.71623 3.75938 1.75227 3.80743 1.75227 3.85548V3.86749V3.87951V3.89152C1.72825 3.96359 1.65618 3.98761 1.5841 3.96359C1.5841 3.96359 1.57209 3.96359 1.57209 3.95158C1.57209 3.95158 1.56008 3.95158 1.56008 3.93957C1.50002 3.91554 1.48801 3.85548 1.50002 3.80743ZM1.72825 3.57921C1.72825 3.57921 1.71624 3.5792 1.71624 3.56719C1.71624 3.56719 1.70422 3.56719 1.70422 3.55518C1.65618 3.51914 1.64416 3.45909 1.65618 3.39903C1.6802 3.32695 1.75227 3.30293 1.82434 3.32695C1.87239 3.35098 1.90842 3.39902 1.90842 3.44707V3.45909V3.4711V3.48311C1.90842 3.49512 1.89641 3.50713 1.8844 3.51915C1.84836 3.57921 1.78831 3.60323 1.72825 3.57921ZM1.8844 3.18281C1.8844 3.18281 1.87239 3.18281 1.87239 3.1708C1.87239 3.1708 1.86038 3.1708 1.86038 3.15879C1.81233 3.12275 1.80032 3.06269 1.81233 3.00263C1.83635 2.93056 1.90842 2.90653 1.9805 2.93056C2.02854 2.95458 2.06458 3.00263 2.06458 3.05068V3.06269V3.0747V3.08671C2.02854 3.1708 1.94446 3.20683 1.8844 3.18281ZM2.26878 2.14978C2.31683 2.1738 2.35286 2.22185 2.35286 2.2699V2.28191V2.29392V2.30593C2.32884 2.37801 2.25677 2.40203 2.1847 2.37801C2.1847 2.37801 2.17268 2.37801 2.17268 2.36599C2.17268 2.36599 2.16067 2.36599 2.16067 2.35398C2.11263 2.31795 2.10061 2.25789 2.11262 2.19783C2.12464 2.16179 2.20872 2.12575 2.26878 2.14978ZM2.25677 1.83747C2.28079 1.76539 2.35286 1.74137 2.42493 1.76539C2.47298 1.78942 2.50901 1.83747 2.50901 1.88551V1.89753V1.90954V1.92155C2.48499 1.99362 2.41292 2.01765 2.34085 1.99362C2.34085 1.99362 2.32884 1.99362 2.32884 1.98161C2.32884 1.98161 2.31683 1.98161 2.31683 1.9696C2.24476 1.94557 2.23274 1.88551 2.25677 1.83747ZM2.12464 2.54617C2.17268 2.5702 2.20872 2.61825 2.20872 2.66629V2.67831V2.69032V2.70233C2.1847 2.7744 2.11263 2.79843 2.04055 2.7744C2.04055 2.7744 2.02854 2.7744 2.02854 2.76239C2.02854 2.76239 2.01653 2.76239 2.01653 2.75038C1.96848 2.71434 1.95647 2.65428 1.96848 2.59422C1.98049 2.55819 2.05257 2.52215 2.12464 2.54617ZM1.93245 3.96359C1.95647 3.89152 2.02854 3.86749 2.10061 3.89152C2.14866 3.91554 2.1847 3.96359 2.1847 4.01164V4.02365V4.03566V4.04767C2.16067 4.11974 2.0886 4.14377 2.01653 4.11974C2.01653 4.11974 2.00452 4.11974 2.00452 4.10773C2.00452 4.10773 1.99251 4.10773 1.99251 4.09572C1.93245 4.08371 1.92043 4.02365 1.93245 3.96359ZM2.16067 3.73536C2.16067 3.73536 2.14866 3.73536 2.14866 3.72335C2.14866 3.72335 2.13665 3.72335 2.13665 3.71134C2.0886 3.6753 2.07659 3.61524 2.0886 3.55518C2.11262 3.48311 2.1847 3.45909 2.25677 3.48311C2.30481 3.50713 2.34085 3.55518 2.34085 3.60323V3.61524V3.62725V3.63927C2.34085 3.65128 2.32884 3.66329 2.31683 3.6753C2.28079 3.74737 2.22073 3.75938 2.16067 3.73536ZM2.30481 3.35098C2.30481 3.35098 2.2928 3.35098 2.2928 3.33897C2.2928 3.33897 2.28079 3.33896 2.28079 3.32695C2.23274 3.29092 2.22073 3.23086 2.23274 3.1708C2.25677 3.09872 2.32884 3.0747 2.40091 3.09873C2.44896 3.12275 2.48499 3.1708 2.48499 3.21885V3.23086V3.24287V3.25488C2.44896 3.33896 2.37688 3.375 2.30481 3.35098ZM2.46097 2.95458C2.46097 2.95458 2.44896 2.95458 2.44896 2.94257C2.44896 2.94257 2.43694 2.94257 2.43694 2.93056C2.3889 2.89452 2.37688 2.83446 2.3889 2.7744C2.41292 2.70233 2.48499 2.67831 2.55706 2.70233C2.60511 2.72635 2.64115 2.7744 2.64115 2.82245V2.83446V2.84647V2.85849C2.60511 2.94257 2.52103 2.9786 2.46097 2.95458ZM2.60511 2.55819C2.60511 2.55819 2.5931 2.55819 2.5931 2.54617C2.5931 2.54617 2.58109 2.54617 2.58109 2.53416C2.53304 2.49813 2.52103 2.43807 2.53304 2.37801C2.55706 2.30593 2.62913 2.28191 2.7012 2.30593C2.74925 2.32996 2.78529 2.37801 2.78529 2.42605V2.43807V2.45008V2.46209C2.74925 2.54617 2.67718 2.58221 2.60511 2.55819ZM2.67718 1.99362C2.70121 1.92155 2.77328 1.89753 2.84535 1.92155C2.89339 1.94557 2.92943 1.99362 2.92943 2.04167V2.05368V2.06569V2.07771C2.9054 2.14978 2.83333 2.1738 2.76126 2.14978C2.76126 2.14978 2.74925 2.14978 2.74925 2.13777C2.74925 2.13777 2.73724 2.13777 2.73724 2.12575C2.67718 2.11374 2.66517 2.05368 2.67718 1.99362ZM2.66517 3.33897C2.68919 3.26689 2.76126 3.24287 2.83333 3.26689C2.88138 3.29092 2.91742 3.33896 2.91742 3.38701V3.39903V3.41104V3.42305C2.89339 3.49512 2.82132 3.51914 2.74925 3.49512C2.74925 3.49512 2.73724 3.49512 2.73724 3.48311C2.73724 3.48311 2.72523 3.48311 2.72523 3.4711C2.66517 3.45908 2.64114 3.39903 2.66517 3.33897ZM2.89339 3.11074C2.89339 3.11074 2.88138 3.11074 2.88138 3.09873C2.88138 3.09873 2.86937 3.09873 2.86937 3.08671C2.82132 3.05068 2.80931 2.99062 2.82132 2.93056C2.84535 2.85848 2.91742 2.83446 2.98949 2.85849C3.03753 2.88251 3.07357 2.93056 3.07357 2.97861V2.99062V3.00263V3.01464C3.03753 3.11074 2.95345 3.14677 2.89339 3.11074ZM3.03754 2.72635C3.03754 2.72635 3.02552 2.72635 3.02552 2.71434C3.02552 2.71434 3.01351 2.71434 3.01351 2.70233C2.96546 2.66629 2.95345 2.60623 2.96546 2.54617C2.98949 2.4741 3.06156 2.45008 3.13363 2.4741C3.18168 2.49813 3.21771 2.54617 3.21771 2.59422V2.60623V2.61825V2.63026C3.18168 2.71434 3.10961 2.75038 3.03754 2.72635ZM3.18168 2.32996C3.18168 2.32996 3.16966 2.32996 3.16966 2.31795C3.16966 2.31795 3.15765 2.31795 3.15765 2.30593C3.10961 2.2699 3.09759 2.20984 3.10961 2.14978C3.13363 2.07771 3.2057 2.05368 3.27777 2.07771C3.32582 2.10173 3.36185 2.14978 3.36185 2.19783V2.20984V2.22185V2.23386C3.32582 2.31795 3.25375 2.35398 3.18168 2.32996ZM3.24174 3.11074C3.26576 3.03866 3.33783 3.01464 3.4099 3.03867C3.45795 3.06269 3.49398 3.11074 3.49398 3.15879V3.1708V3.18281V3.19482C3.46996 3.26689 3.39789 3.29092 3.32582 3.26689C3.32582 3.26689 3.31381 3.26689 3.31381 3.25488C3.31381 3.25488 3.3018 3.25488 3.3018 3.24287C3.24174 3.23086 3.21771 3.1708 3.24174 3.11074ZM3.46996 2.88251C3.46996 2.88251 3.45795 2.88251 3.45795 2.8705C3.45795 2.8705 3.44594 2.8705 3.44594 2.85849C3.39789 2.82245 3.38588 2.76239 3.39789 2.70233C3.42191 2.63026 3.49398 2.60623 3.56606 2.63026C3.6141 2.65428 3.65014 2.70233 3.65014 2.75038V2.76239V2.7744V2.78641C3.6141 2.88251 3.54203 2.90653 3.46996 2.88251ZM3.6141 2.49813C3.6141 2.49813 3.60209 2.49813 3.60209 2.48611C3.60209 2.48611 3.59008 2.48611 3.59008 2.4741C3.54203 2.43807 3.53002 2.37801 3.54203 2.31795C3.56606 2.24587 3.63813 2.22185 3.7102 2.24587C3.75824 2.2699 3.79428 2.31795 3.79428 2.36599V2.37801V2.39002V2.40203C3.75824 2.48611 3.68617 2.52215 3.6141 2.49813ZM3.4099 1.369C3.43393 1.29693 3.506 1.2729 3.57807 1.29693C3.62612 1.32095 3.66215 1.369 3.66215 1.41705V1.42906V1.44107V1.45308C3.63813 1.52515 3.56605 1.54918 3.49398 1.52515C3.49398 1.52515 3.48197 1.52515 3.48197 1.51314C3.48197 1.51314 3.46996 1.51314 3.46996 1.50113C3.4099 1.48912 3.38588 1.42906 3.4099 1.369ZM3.26576 1.76539C3.28978 1.69332 3.36185 1.6693 3.43392 1.69332C3.48197 1.71735 3.51801 1.76539 3.51801 1.81344V1.82545V1.83747V1.84948V1.86149C3.506 1.8735 3.506 1.88551 3.49398 1.89753C3.49398 1.89753 3.48197 1.89753 3.48197 1.90954C3.44594 1.94557 3.39789 1.94557 3.34984 1.93356C3.34984 1.93356 3.33783 1.93356 3.33783 1.92155C3.33783 1.92155 3.32582 1.92155 3.32582 1.90954C3.25375 1.88551 3.24174 1.82545 3.26576 1.76539ZM2.97748 1.21284C3.0015 1.14077 3.07357 1.11675 3.14564 1.14077C3.19369 1.1648 3.22972 1.21284 3.22972 1.26089V1.2729V1.28491V1.29693C3.2057 1.369 3.13363 1.39302 3.06156 1.369C3.06156 1.369 3.04955 1.369 3.04955 1.35699C3.04955 1.35699 3.03754 1.35699 3.03754 1.34497C2.97748 1.33296 2.95345 1.26089 2.97748 1.21284ZM2.83333 1.60924C2.85736 1.53717 2.92943 1.51314 3.0015 1.53717C3.04955 1.56119 3.08558 1.60924 3.08558 1.65729V1.6693V1.68131V1.69332C3.08558 1.70533 3.07357 1.70533 3.07357 1.71735C3.07357 1.72936 3.06156 1.72936 3.06156 1.74137C3.02552 1.77741 2.96547 1.78942 2.91742 1.77741C2.91742 1.77741 2.90541 1.77741 2.90541 1.76539C2.90541 1.76539 2.89339 1.76539 2.89339 1.75338C2.83333 1.71735 2.80931 1.65729 2.83333 1.60924ZM2.54505 1.04468C2.56907 0.972603 2.64114 0.94858 2.71322 0.972603C2.76126 0.996628 2.7973 1.04468 2.7973 1.09272V1.10474V1.11675V1.12876C2.77328 1.20083 2.7012 1.22486 2.62913 1.20083C2.62913 1.20083 2.61712 1.20083 2.61712 1.18882C2.61712 1.18882 2.60511 1.18882 2.60511 1.17681C2.54505 1.16479 2.53304 1.10474 2.54505 1.04468ZM2.40091 1.44107C2.42493 1.369 2.497 1.34497 2.56907 1.369C2.61712 1.39302 2.65316 1.44107 2.65316 1.48912V1.50113V1.51314V1.52515V1.53717C2.65316 1.54918 2.64115 1.54918 2.64115 1.56119C2.60511 1.60924 2.54505 1.62125 2.497 1.59723C2.497 1.59723 2.48499 1.59723 2.48499 1.58521C2.48499 1.58521 2.47298 1.58521 2.47298 1.5732C2.40091 1.56119 2.37689 1.50113 2.40091 1.44107ZM2.11262 0.888519C2.13665 0.816447 2.20872 0.792423 2.28079 0.816447C2.32884 0.840471 2.36487 0.888519 2.36487 0.936567V0.948579V0.960592V0.972603C2.34085 1.04468 2.26878 1.0687 2.19671 1.04468C2.19671 1.04468 2.1847 1.04468 2.1847 1.03266C2.1847 1.03266 2.17268 1.03266 2.17268 1.02065C2.11262 0.996628 2.10061 0.936567 2.11262 0.888519ZM1.96848 1.2729C1.99251 1.20083 2.06458 1.17681 2.13665 1.20083C2.1847 1.22486 2.22073 1.2729 2.22073 1.32095V1.33296V1.34497V1.35699V1.369C2.19671 1.42906 2.12464 1.45308 2.05256 1.42906C2.05256 1.42906 2.04055 1.42906 2.04055 1.41705C2.04055 1.41705 2.02854 1.41705 2.02854 1.40503C1.96848 1.39302 1.94446 1.33296 1.96848 1.2729ZM1.82434 1.6693C1.84836 1.59723 1.92043 1.5732 1.99251 1.59723C2.04055 1.62125 2.07659 1.6693 2.07659 1.71735V1.72936V1.74137V1.75338C2.05257 1.82545 1.98049 1.84948 1.90842 1.82545C1.90842 1.82545 1.89641 1.82545 1.89641 1.81344C1.89641 1.81344 1.8844 1.81344 1.8844 1.80143C1.82434 1.78942 1.80032 1.72936 1.82434 1.6693ZM1.53606 1.11675C1.56008 1.04468 1.63215 1.02065 1.70422 1.04468C1.75227 1.0687 1.78831 1.11675 1.78831 1.1648V1.17681V1.18882V1.20083V1.21284C1.77629 1.22486 1.77629 1.23687 1.76428 1.24888L1.75227 1.26089C1.71623 1.28492 1.66819 1.29693 1.62014 1.28491C1.62014 1.28491 1.60813 1.28492 1.60813 1.2729C1.60813 1.2729 1.59612 1.2729 1.59612 1.26089C1.53606 1.23687 1.52405 1.17681 1.53606 1.11675ZM1.39191 1.51314C1.41594 1.44107 1.48801 1.41705 1.56008 1.44107C1.60813 1.4651 1.64416 1.51314 1.64416 1.56119V1.5732V1.58521V1.59723C1.62014 1.6693 1.54807 1.69332 1.476 1.6693C1.476 1.6693 1.46399 1.6693 1.46399 1.65729C1.46399 1.65729 1.45197 1.65729 1.45197 1.64527C1.39191 1.62125 1.36789 1.56119 1.39191 1.51314ZM1.23576 1.89753C1.25979 1.82545 1.33186 1.80143 1.40393 1.82545C1.45197 1.84948 1.48801 1.89753 1.48801 1.94557V1.95759V1.9696V1.98161C1.46399 2.05368 1.39192 2.07771 1.31984 2.05368C1.31984 2.05368 1.30783 2.05368 1.30783 2.04167C1.30783 2.04167 1.29582 2.04167 1.29582 2.02966C1.23576 2.01765 1.22375 1.95759 1.23576 1.89753ZM0.95949 1.34497C0.983514 1.2729 1.05558 1.24888 1.12765 1.2729C1.1757 1.29693 1.21174 1.34498 1.21174 1.39302V1.40503V1.41705V1.42906C1.18771 1.50113 1.11564 1.52516 1.04357 1.50113C1.04357 1.50113 1.03156 1.50113 1.03156 1.48912C1.03156 1.48912 1.01955 1.48912 1.01955 1.47711C0.95949 1.46509 0.935466 1.40503 0.95949 1.34497ZM0.815349 1.74137C0.839372 1.6693 0.911442 1.64527 0.983513 1.6693C1.03156 1.69332 1.0676 1.74137 1.0676 1.78942V1.80143V1.81344V1.82545C1.04357 1.89753 0.971502 1.92155 0.899431 1.89753C0.899431 1.89753 0.887418 1.89753 0.887418 1.88551C0.887418 1.88551 0.875408 1.88551 0.875408 1.8735C0.803337 1.86149 0.791325 1.78942 0.815349 1.74137ZM0.659194 2.13777C0.683218 2.06569 0.755288 2.04167 0.827359 2.06569C0.875407 2.08972 0.911442 2.13777 0.911442 2.18581V2.19783V2.20984V2.22185C0.887418 2.29392 0.815348 2.31795 0.743277 2.29392C0.743277 2.29392 0.731264 2.29392 0.731264 2.28191C0.731264 2.28191 0.719254 2.28191 0.719254 2.2699C0.659194 2.24587 0.635171 2.18581 0.659194 2.13777ZM0.7673 2.5702V2.58221V2.59422V2.60623C0.743277 2.67831 0.671206 2.70233 0.599135 2.67831C0.599135 2.67831 0.587123 2.67831 0.587123 2.66629C0.587123 2.66629 0.575112 2.66629 0.575112 2.65428C0.527065 2.61825 0.515052 2.55819 0.527064 2.49813C0.551087 2.42605 0.623159 2.40203 0.69523 2.42605C0.731266 2.4741 0.7673 2.52215 0.7673 2.5702ZM0.875408 3.25488C0.875408 3.25488 0.863395 3.25488 0.863395 3.24287C0.863395 3.24287 0.851383 3.24287 0.851383 3.23086C0.803335 3.19482 0.791324 3.13476 0.803336 3.0747C0.82736 3.00263 0.89943 2.97861 0.971501 3.00263C1.01955 3.02665 1.05559 3.0747 1.05559 3.12275V3.13476V3.14677V3.15879V3.1708C1.05559 3.18281 1.04357 3.19482 1.03156 3.20683C1.01955 3.21885 1.00754 3.21884 1.00754 3.23086C0.947478 3.26689 0.911443 3.26689 0.875408 3.25488ZM2.41292 5.30893C2.19671 5.66929 1.53606 6.06569 1.36789 6.16178C1.34387 6.17379 1.30783 6.17379 1.28381 6.16178L1.19973 6.12575C1.1757 6.11373 1.15168 6.08971 1.13967 6.06569C1.07961 5.88551 0.839372 5.14076 0.923454 4.73236C0.935466 4.6723 0.995526 4.64827 1.05559 4.66028L2.36487 5.15277C2.42493 5.20082 2.44896 5.26088 2.41292 5.30893ZM2.61712 4.1798V4.19182V4.20383V4.21584C2.5931 4.28791 2.52103 4.31194 2.44896 4.28791C2.44896 4.28791 2.43694 4.28791 2.43694 4.2759C2.43694 4.2759 2.42493 4.2759 2.42493 4.26389C2.37688 4.22785 2.36487 4.16779 2.37689 4.10773C2.40091 4.03566 2.47298 4.01164 2.54505 4.03566C2.5931 4.0717 2.61712 4.11974 2.61712 4.1798ZM2.77327 3.78341V3.79542V3.80743V3.81945C2.77327 3.83146 2.76126 3.84347 2.74925 3.85548C2.71322 3.90353 2.65316 3.91554 2.60511 3.89152C2.60511 3.89152 2.5931 3.89152 2.5931 3.87951C2.5931 3.87951 2.58109 3.8795 2.58109 3.86749C2.53304 3.83146 2.52103 3.7714 2.53304 3.71134C2.55706 3.63926 2.62913 3.61524 2.7012 3.63927C2.73724 3.6753 2.77327 3.72335 2.77327 3.78341ZM3.04955 4.33596V4.34797V4.35998V4.372C3.02552 4.44407 2.95345 4.46809 2.88138 4.44407C2.88138 4.44407 2.86937 4.44407 2.86937 4.43206C2.86937 4.43206 2.85736 4.43206 2.85736 4.42004C2.80931 4.38401 2.7973 4.32395 2.80931 4.26389C2.83333 4.19182 2.90541 4.16779 2.97748 4.19182C3.01351 4.23986 3.04955 4.28791 3.04955 4.33596ZM3.19369 3.93957V3.95158V3.96359V3.9756V3.98761C3.16966 4.04767 3.09759 4.0717 3.02552 4.04767C3.02552 4.04767 3.01351 4.04767 3.01351 4.03566C3.01351 4.03566 3.0015 4.03566 3.0015 4.02365C2.95345 3.98761 2.94144 3.92755 2.95345 3.86749C2.97748 3.79542 3.04955 3.7714 3.12162 3.79542C3.16967 3.84347 3.19369 3.89152 3.19369 3.93957ZM3.34984 3.55518V3.56719V3.57921V3.59122C3.32582 3.66329 3.25375 3.68731 3.18168 3.66329C3.18168 3.66329 3.16966 3.66329 3.16966 3.65128C3.16966 3.65128 3.15765 3.65128 3.15765 3.63927C3.10961 3.60323 3.09759 3.54317 3.10961 3.48311C3.13363 3.41104 3.2057 3.38701 3.27777 3.41104C3.31381 3.44707 3.34984 3.49512 3.34984 3.55518ZM3.62611 4.10773V4.11974V4.13176V4.14377V4.15578C3.60209 4.21584 3.53002 4.23986 3.45795 4.21584C3.45795 4.21584 3.44594 4.21584 3.44594 4.20383C3.44594 4.20383 3.43392 4.20383 3.43392 4.19182C3.38588 4.15578 3.37387 4.09572 3.38588 4.03566C3.4099 3.96359 3.48197 3.93956 3.55404 3.96359C3.60209 3.99962 3.62611 4.05968 3.62611 4.10773ZM3.78227 3.71134V3.72335V3.73536V3.74737C3.75824 3.81944 3.68617 3.84347 3.6141 3.81945C3.6141 3.81945 3.60209 3.81944 3.60209 3.80743C3.60209 3.80743 3.59008 3.80743 3.59008 3.79542C3.54203 3.75938 3.53002 3.69933 3.54203 3.63927C3.56606 3.56719 3.63813 3.54317 3.7102 3.56719C3.74623 3.61524 3.78227 3.66329 3.78227 3.71134ZM3.92641 3.32695V3.33897V3.35098V3.36299C3.90239 3.43506 3.83032 3.45908 3.75825 3.43506C3.75825 3.43506 3.74623 3.43506 3.74623 3.42305C3.74623 3.42305 3.73422 3.42305 3.73422 3.41104C3.68617 3.375 3.67416 3.31494 3.68617 3.25488C3.7102 3.18281 3.78227 3.15879 3.85434 3.18281C3.89037 3.21885 3.92641 3.26689 3.92641 3.32695C3.92641 3.31494 3.92641 3.31494 3.92641 3.32695ZM4.20268 3.87951V3.89152V3.90353V3.91554C4.17866 3.98761 4.10659 4.01164 4.03452 3.98761C4.03452 3.98761 4.02251 3.98761 4.02251 3.9756C4.02251 3.9756 4.01049 3.9756 4.01049 3.96359C3.96245 3.92755 3.95043 3.86749 3.96245 3.80743C3.98647 3.73536 4.05854 3.71134 4.13061 3.73536C4.17866 3.7714 4.21469 3.81945 4.20268 3.87951ZM4.35884 3.48311V3.49512V3.50713V3.51915C4.33481 3.59122 4.26274 3.61524 4.19067 3.59122C4.19067 3.59122 4.17866 3.59122 4.17866 3.57921C4.17866 3.57921 4.16665 3.5792 4.16665 3.56719C4.1186 3.53116 4.10659 3.4711 4.1186 3.41104C4.14262 3.33896 4.21469 3.31494 4.28677 3.33897C4.3228 3.375 4.35884 3.43506 4.35884 3.48311ZM4.50298 3.08671V3.09873V3.11074V3.12275C4.47895 3.19482 4.40688 3.21884 4.33481 3.19482C4.33481 3.19482 4.3228 3.19482 4.3228 3.18281C4.3228 3.18281 4.31079 3.18281 4.31079 3.1708C4.26274 3.13476 4.25073 3.0747 4.26274 3.01464C4.28677 2.94257 4.35884 2.91855 4.43091 2.94257C4.47895 2.99062 4.50298 3.03867 4.50298 3.08671ZM4.65913 2.70233V2.71434V2.72635V2.73837C4.63511 2.81044 4.56304 2.83446 4.49097 2.81044C4.49097 2.81044 4.47896 2.81044 4.47896 2.79843C4.47896 2.79843 4.46694 2.79843 4.46694 2.78641C4.4189 2.75038 4.40688 2.69032 4.4189 2.63026C4.44292 2.55819 4.51499 2.53416 4.58706 2.55819C4.6231 2.59422 4.65913 2.64227 4.65913 2.70233Z" fill="#D3AB9A"/>
</svg>
