<svg width="26" height="33" viewBox="0 0 26 33" fill="none" xmlns="http://www.w3.org/2000/svg">
<path d="M16.9854 6.08179H1.92432V8.79999H16.9854V6.08179Z" fill="#670821"/>
<path d="M8.08257 6.09546H1.91113V14.7493H8.08257V6.09546Z" fill="#8E1537"/>
<path d="M6.45496 0.000116581L3.77783 2.67725L6.45496 5.35438L9.13209 2.67725L6.45496 0.000116581Z" fill="#D41E44"/>
<path d="M1.92204 6.08284L0 8.00488L4.86395 12.8688L6.78599 10.9468L1.92204 6.08284Z" fill="#D41E44"/>
<path d="M7.86053 6.0843L2.99658 10.9482L4.91863 12.8703L9.78257 8.00634L7.86053 6.0843Z" fill="#D41E44"/>
<path d="M4.67084 15.3875H1.95264V33.0003H4.67084V15.3875Z" fill="#670821"/>
<path d="M11.0641 32.9032L7.94369 15.4013L5.26709 15.3875L8.31814 32.9448L11.0641 32.9032Z" fill="#8E1537"/>
<path d="M25.5702 6.85845L9.69092 7.95405V5.73511H25.5702V6.85845Z" fill="#D3AB9A"/>
</svg>
