<svg width="33" height="25" viewBox="0 0 33 25" fill="none" xmlns="http://www.w3.org/2000/svg">
<path d="M10.7002 16.8696V10.2627H8.43213V18.056L10.7002 16.8696Z" fill="#670821"/>
<path d="M5.71158 23.9886L10.713 16.8699L8.42165 16.3232L3.85059 22.6742L5.71158 23.9886Z" fill="#8E1537"/>
<path d="M16.9933 15.6482L13.4691 10.2626L10.7241 10.251L14.7369 16.6136L16.9933 15.6482Z" fill="#670821"/>
<path d="M17.0867 24.3373L16.9937 15.6367L14.7256 16.5905L14.807 24.3606L17.0867 24.3373Z" fill="#8E1537"/>
<path d="M13.5977 9.80927L17.8547 4.77268L13.9466 2.8418L8.53809 9.76274L13.5977 9.80927Z" fill="#8E1537"/>
<path d="M19.4335 0.000724606L16.5249 1.27441L17.7985 4.18317L20.7071 2.90948L19.4335 0.000724606Z" fill="#D41E44"/>
<path d="M20.4365 10.5889L26.8569 11.5311L26.8686 9.10003L21.1809 8.11133L20.4365 10.5889Z" fill="#D41E44"/>
<path d="M21.1815 8.1108L17.8433 4.77246L16.2266 6.37766L20.4371 10.5884L21.1815 8.1108Z" fill="#8E1537"/>
<path d="M8.11807 2.16699L3.04688 6.12182L6.51297 6.50567L9.0602 4.57478L8.11807 2.16699Z" fill="#670821"/>
<path d="M9.04866 4.58641L13.736 5.16801L14.0152 2.8998L8.11816 2.16699L9.04866 4.58641Z" fill="#8E1537"/>
<path d="M29.3571 11.0191L0 5.66844L0.139574 4.94727L29.392 10.6818L29.3571 11.0191Z" fill="#D3AB9A"/>
<path d="M23.3891 24.2561H22.2376L21.3071 12.5312H24.3196L23.3891 24.2561Z" fill="#D3AB9A"/>
<path d="M32.8598 15.5436H21.5776L19.6235 11.5771H32.8598V15.5436Z" fill="#D3AB9A"/>
<path d="M31.9732 10.9032C31.9732 11.2754 31.6708 11.5778 31.2986 11.5778C30.9264 11.5778 30.624 11.2754 30.624 10.9032C30.624 10.5309 30.9264 10.2285 31.2986 10.2285C31.6708 10.2285 31.9732 10.5309 31.9732 10.9032Z" fill="#D3AB9A"/>
</svg>
