<svg width="30" height="23" viewBox="0 0 30 23" fill="none" xmlns="http://www.w3.org/2000/svg">
<path d="M11.9276 0.0163574L5.48486 6.45913L10.127 6.39305L13.7613 2.75866L11.9276 0.0163574Z" fill="#670821"/>
<path d="M11.9272 4.59254L17.4613 10.1102L19.7411 7.83044L11.9106 0L11.9272 4.59254Z" fill="#8E1537"/>
<path d="M5.56738 12.2248H19.7414V7.16968H9.86255L5.56738 12.2248Z" fill="#D41E44"/>
<path d="M25.1925 5.05518H20.666V9.58163H25.1925V5.05518Z" fill="#D41E44"/>
<path d="M4.31169 18.1389L0 15.1487L0.743395 14.075L4.31169 16.5364L7.87999 14.075L8.62338 15.1487L4.31169 18.1389Z" fill="#D3AB9A"/>
<path d="M11.4314 18.1389L7.13623 15.1487L7.87963 14.075L11.4314 16.5364L14.9997 14.075L15.7431 15.1487L11.4314 18.1389Z" fill="#D3AB9A"/>
<path d="M18.568 18.1389L14.2563 15.1487L14.9997 14.075L18.568 16.5364L22.1363 14.075L22.8797 15.1487L18.568 18.1389Z" fill="#D3AB9A"/>
<path d="M25.6882 18.1389L21.3765 15.1487L22.1364 14.075L25.6882 16.5364L29.2565 14.075L29.9998 15.1487L25.6882 18.1389Z" fill="#D3AB9A"/>
<path d="M4.31169 22.2356L0 19.262L0.743395 18.1882L4.31169 20.6497L7.87999 18.1882L8.62338 19.262L4.31169 22.2356Z" fill="#D3AB9A"/>
<path d="M11.4314 22.2356L7.13623 19.262L7.87963 18.1882L11.4314 20.6497L14.9997 18.1882L15.7431 19.262L11.4314 22.2356Z" fill="#D3AB9A"/>
<path d="M18.568 22.2356L14.2563 19.262L14.9997 18.1882L18.568 20.6497L22.1363 18.1882L22.8797 19.262L18.568 22.2356Z" fill="#D3AB9A"/>
<path d="M25.6882 22.2356L21.3765 19.262L22.1364 18.1882L25.6882 20.6497L29.2565 18.1882L29.9998 19.262L25.6882 22.2356Z" fill="#D3AB9A"/>
</svg>
