<svg width="35" height="30" viewBox="0 0 35 30" fill="none" xmlns="http://www.w3.org/2000/svg">
<path d="M19.2881 28.746L11.9082 13.6695L9.05664 13.6562L16.8853 30.0001L19.2881 28.746Z" fill="#D41E44"/>
<path d="M11.8825 13.206L14.8793 5.53577L9.41371 5.44336L6.13965 13.1532L11.8825 13.206Z" fill="#8E1537"/>
<path d="M14.8355 -0.000293857L11.5342 1.44531L12.9798 4.74667L16.2811 3.30107L14.8355 -0.000293857Z" fill="#D41E44"/>
<path d="M8.79264 13.6562H6.20508V22.5015H8.79264V13.6562Z" fill="#670821"/>
<path d="M1.83506 29.5116L8.81884 22.5279L6.24448 21.4453L0 27.6766L1.83506 29.5116Z" fill="#8E1537"/>
<path d="M3.32696 8.50586L0.990234 15.4236L4.51513 13.6018L5.7165 10.1825L3.32696 8.50586Z" fill="#670821"/>
<path d="M5.71719 10.196L10.5095 7.80642L9.3609 5.49609L3.31445 8.50612L5.71719 10.196Z" fill="#8E1537"/>
<path d="M17.8096 12.1367L25.1102 12.1499L25.1234 9.37749L18.6545 9.33789L17.8096 12.1367Z" fill="#D41E44"/>
<path d="M18.6557 9.33924L14.8668 5.53711L13.0449 7.37217L17.8108 12.138L18.6557 9.33924Z" fill="#8E1537"/>
<path d="M28.7008 8.80962C27.6843 9.82616 26.5357 9.45651 25.6116 8.53238C24.6743 7.59504 24.3046 6.45969 25.3344 5.44314C26.3509 4.4266 28.384 3.89853 29.3213 4.83586C30.2322 5.75999 29.7174 7.79307 28.7008 8.80962Z" fill="#D3AB9A"/>
<path d="M25.7624 7.5989L23.8301 9.53125L24.6049 10.3061L26.5372 8.37371L25.7624 7.5989Z" fill="#D3AB9A"/>
<path d="M34.0875 14.3418H17.4268V15.1867H34.0875V14.3418Z" fill="#D3AB9A"/>
</svg>
