<svg width="25" height="30" viewBox="0 0 25 30" fill="none" xmlns="http://www.w3.org/2000/svg">
<path d="M15.1275 5.40118e-05L7.80713 7.32031L9.41024 8.92341L16.7306 1.60315L15.1275 5.40118e-05Z" fill="#8E1537"/>
<path d="M5.01609 10.1212L2.74316 15.8896L4.85254 16.7208L7.12546 10.9524L5.01609 10.1212Z" fill="#670821"/>
<path d="M22.6003 3.55222L10.5278 15.6245L12.1309 17.2276L24.2034 5.15532L22.6003 3.55222Z" fill="#8E1537"/>
<path d="M10.8614 10.1624L5.74867 9.38745L4.93896 10.1856L10.0517 15.2866L11.2431 14.0952L10.8614 10.1624Z" fill="#8E1537"/>
<path d="M11.5328 9.51463L11.9145 13.4243L13.6843 11.6545L8.58317 6.55347L6.39697 8.73964L11.5328 9.51463Z" fill="#8E1537"/>
<path d="M7.18323 3.91626H4.02539V7.07406H7.18323V3.91626Z" fill="#D41E44"/>
<path d="M1.89702 15.5412L0 10.9953L2.08209 10.1162L4.86978 16.7557L1.89702 15.5412Z" fill="#D41E44"/>
<path d="M12.6891 29.9999H10.3525V15.7608L12.6891 13.459V29.9999Z" fill="#D41E44"/>
</svg>
