<svg width="26" height="33" viewBox="0 0 26 33" fill="none" xmlns="http://www.w3.org/2000/svg">
<path d="M10.9304 9.87802L4.54102 10.0212L4.59339 12.3577L10.9828 12.2144L10.9304 9.87802Z" fill="#670821"/>
<path d="M4.53271 9.09221L8.09801 5.46729L9.76738 7.10089L4.56849 12.3952L4.53271 9.09221Z" fill="#D41E44"/>
<path d="M15.204 12.3116L25.2083 8.22162L24.4213 6.02759L14.417 10.1056L15.204 12.3116Z" fill="#670821"/>
<path d="M15.3829 18.7865V9.87915H10.7563V16.5209L15.3829 18.7865Z" fill="#8E1537"/>
<path d="M12.7671 4.49555L10.4653 6.79736L12.7671 9.09917L15.0689 6.79736L12.7671 4.49555Z" fill="#D41E44"/>
<path d="M10.6111 17.0017L7.08545 24.1711L9.18278 25.2025L12.7084 18.033L10.6111 17.0017Z" fill="#670821"/>
<path d="M0.751215 28.1114L9.19346 25.2258L7.54793 23.3298L0 25.8935L0.751215 28.1114Z" fill="#8E1537"/>
<path d="M16.0612 25.8335L15.2504 19.2872L12.7344 18.0352L13.5452 25.7024L16.0612 25.8335Z" fill="#670821"/>
<path d="M10.6359 33.0001L16.0613 25.8337L13.5454 25.6787L8.95459 31.3188L10.6359 33.0001Z" fill="#8E1537"/>
<path d="M20.5708 3.85745C19.6884 4.73984 18.2575 4.73984 17.3752 3.85745C16.4928 2.97507 16.4928 1.54417 17.3752 0.661788C18.2575 -0.220596 19.6884 -0.220596 20.5708 0.661788C21.4532 1.53225 21.4532 2.97507 20.5708 3.85745ZM17.8283 1.10298C17.1963 1.73496 17.1963 2.77236 17.8283 3.40433C18.4603 4.03631 19.4976 4.03631 20.1296 3.40433C20.7616 2.77236 20.7616 1.73496 20.1296 1.10298C19.4857 0.471002 18.4603 0.471002 17.8283 1.10298Z" fill="#D3AB9A"/>
</svg>
